<?xml version="1.0" encoding="UTF-8" standalone="no" ?>
<!DOCTYPE svg PUBLIC "-//W3C//DTD SVG 1.1//EN" "http://www.w3.org/Graphics/SVG/1.1/DTD/svg11.dtd">
<svg xmlns="http://www.w3.org/2000/svg" xmlns:xlink="http://www.w3.org/1999/xlink" version="1.1" width="1280" height="1024" viewBox="0 0 1280 1024" xml:space="preserve">
<desc>Created with Fabric.js 5.3.0</desc>
<defs>
</defs>
<g transform="matrix(1 0 0 1 640 512)" id="background-logo"  >
<rect style="stroke: none; stroke-width: 0; stroke-dasharray: none; stroke-linecap: butt; stroke-dashoffset: 0; stroke-linejoin: miter; stroke-miterlimit: 4; fill: rgb(0,0,0); fill-rule: nonzero; opacity: 1;"  paint-order="stroke"  x="-640" y="-512" rx="0" ry="0" width="1280" height="1024" />
</g>
<g transform="matrix(1.8007172376190164 0 0 1.8007172376190164 260.81537933247745 512)" id="logo-logo"  >
<g style=""  paint-order="stroke"   >
		<g transform="matrix(0.6091776252381563 0 0 0.6091776252381563 0 0)"  >
<g style=""  paint-order="stroke"   >
		<g transform="matrix(1 0 0 1 -116.74999999999999 73.30000000000001)"  >
<circle style="stroke: none; stroke-width: 1; stroke-dasharray: none; stroke-linecap: butt; stroke-dashoffset: 0; stroke-linejoin: miter; stroke-miterlimit: 4; fill: rgb(255,255,255); fill-rule: nonzero; opacity: 1;"  paint-order="stroke"  cx="0" cy="0" r="0.9" />
</g>
		<g transform="matrix(1 0 0 1 -99.64999999999999 89.80000000000001)"  >
<path style="stroke: none; stroke-width: 1; stroke-dasharray: none; stroke-linecap: butt; stroke-dashoffset: 0; stroke-linejoin: miter; stroke-miterlimit: 4; fill: rgb(255,255,255); fill-rule: nonzero; opacity: 1;"  paint-order="stroke"  transform=" translate(-36.8, -239.8)" d="M 35.3 239.8 C 35.3 240.60000000000002 35.9 241.3 36.8 241.3 C 37.599999999999994 241.3 38.3 240.70000000000002 38.3 239.8 C 38.3 239 37.699999999999996 238.3 36.8 238.3 C 36 238.3 35.3 239 35.3 239.8 z" stroke-linecap="round" />
</g>
		<g transform="matrix(1 0 0 1 -81.14999999999999 102.80000000000001)"  >
<path style="stroke: none; stroke-width: 1; stroke-dasharray: none; stroke-linecap: butt; stroke-dashoffset: 0; stroke-linejoin: miter; stroke-miterlimit: 4; fill: rgb(255,255,255); fill-rule: nonzero; opacity: 1;"  paint-order="stroke"  transform=" translate(-55.3, -252.8)" d="M 55.3 250.8 C 54.199999999999996 250.8 53.3 251.70000000000002 53.3 252.8 C 53.3 253.9 54.199999999999996 254.8 55.3 254.8 C 56.4 254.8 57.3 253.9 57.3 252.8 C 57.3 251.7 56.4 250.8 55.3 250.8 z" stroke-linecap="round" />
</g>
		<g transform="matrix(1 0 0 1 -61.54999999999998 112.39999999999998)"  >
<circle style="stroke: none; stroke-width: 1; stroke-dasharray: none; stroke-linecap: butt; stroke-dashoffset: 0; stroke-linejoin: miter; stroke-miterlimit: 4; fill: rgb(255,255,255); fill-rule: nonzero; opacity: 1;"  paint-order="stroke"  cx="0" cy="0" r="2.5" />
</g>
		<g transform="matrix(1 0 0 1 -41.14999999999999 118.60000000000002)"  >
<path style="stroke: none; stroke-width: 1; stroke-dasharray: none; stroke-linecap: butt; stroke-dashoffset: 0; stroke-linejoin: miter; stroke-miterlimit: 4; fill: rgb(255,255,255); fill-rule: nonzero; opacity: 1;"  paint-order="stroke"  transform=" translate(-95.3, -268.6)" d="M 95.3 265.5 C 93.6 265.5 92.2 266.9 92.2 268.6 C 92.2 270.3 93.60000000000001 271.70000000000005 95.3 271.70000000000005 C 97 271.70000000000005 98.39999999999999 270.30000000000007 98.39999999999999 268.6 C 98.3 266.9 97 265.5 95.3 265.5 z" stroke-linecap="round" />
</g>
		<g transform="matrix(1 0 0 1 -20.44999999999999 121.40000000000003)"  >
<path style="stroke: none; stroke-width: 1; stroke-dasharray: none; stroke-linecap: butt; stroke-dashoffset: 0; stroke-linejoin: miter; stroke-miterlimit: 4; fill: rgb(255,255,255); fill-rule: nonzero; opacity: 1;"  paint-order="stroke"  transform=" translate(-116, -271.40000000000003)" d="M 116 267.8 C 114 267.8 112.4 269.40000000000003 112.4 271.40000000000003 C 112.4 273.40000000000003 114 275.00000000000006 116 275.00000000000006 C 118 275.00000000000006 119.6 273.40000000000003 119.6 271.40000000000003 C 119.6 269.4 118 267.8 116 267.8 z" stroke-linecap="round" />
</g>
		<g transform="matrix(1 0 0 1 0.25 120.80000000000001)"  >
<circle style="stroke: none; stroke-width: 1; stroke-dasharray: none; stroke-linecap: butt; stroke-dashoffset: 0; stroke-linejoin: miter; stroke-miterlimit: 4; fill: rgb(255,255,255); fill-rule: nonzero; opacity: 1;"  paint-order="stroke"  cx="0" cy="0" r="4.2" />
</g>
		<g transform="matrix(1 0 0 1 20.650000000000006 116.80000000000001)"  >
<path style="stroke: none; stroke-width: 1; stroke-dasharray: none; stroke-linecap: butt; stroke-dashoffset: 0; stroke-linejoin: miter; stroke-miterlimit: 4; fill: rgb(255,255,255); fill-rule: nonzero; opacity: 1;"  paint-order="stroke"  transform=" translate(-157.1, -266.8)" d="M 157.1 262.1 C 154.5 262.1 152.4 264.20000000000005 152.4 266.8 C 152.4 269.40000000000003 154.5 271.5 157.1 271.5 C 159.7 271.5 161.79999999999998 269.4 161.79999999999998 266.8 C 161.8 264.3 159.7 262.1 157.1 262.1 z" stroke-linecap="round" />
</g>
		<g transform="matrix(1 0 0 1 40.25 109.60000000000002)"  >
<path style="stroke: none; stroke-width: 1; stroke-dasharray: none; stroke-linecap: butt; stroke-dashoffset: 0; stroke-linejoin: miter; stroke-miterlimit: 4; fill: rgb(255,255,255); fill-rule: nonzero; opacity: 1;"  paint-order="stroke"  transform=" translate(-176.7, -259.6)" d="M 176.7 254.3 C 173.79999999999998 254.3 171.39999999999998 256.7 171.39999999999998 259.6 C 171.39999999999998 262.5 173.79999999999998 264.90000000000003 176.7 264.90000000000003 C 179.6 264.90000000000003 182 262.50000000000006 182 259.6 C 182 256.6 179.6 254.3 176.7 254.3 z" stroke-linecap="round" />
</g>
		<g transform="matrix(1 0 0 1 58.75 98.89999999999998)"  >
<path style="stroke: none; stroke-width: 1; stroke-dasharray: none; stroke-linecap: butt; stroke-dashoffset: 0; stroke-linejoin: miter; stroke-miterlimit: 4; fill: rgb(255,255,255); fill-rule: nonzero; opacity: 1;"  paint-order="stroke"  transform=" translate(-195.2, -248.89999999999998)" d="M 195.2 254.7 C 198.39999999999998 254.7 201 252.1 201 248.89999999999998 C 201 245.7 198.4 243.09999999999997 195.2 243.09999999999997 C 192 243.09999999999997 189.39999999999998 245.69999999999996 189.39999999999998 248.89999999999998 C 189.4 252.1 192 254.7 195.2 254.7 z" stroke-linecap="round" />
</g>
		<g transform="matrix(1 0 0 1 75.75 84.9)"  >
<path style="stroke: none; stroke-width: 1; stroke-dasharray: none; stroke-linecap: butt; stroke-dashoffset: 0; stroke-linejoin: miter; stroke-miterlimit: 4; fill: rgb(255,255,255); fill-rule: nonzero; opacity: 1;"  paint-order="stroke"  transform=" translate(-212.2, -234.9)" d="M 218.6 234.9 C 218.6 231.4 215.7 228.5 212.2 228.5 C 208.7 228.5 205.79999999999998 231.4 205.79999999999998 234.9 C 205.79999999999998 238.4 208.7 241.3 212.2 241.3 C 215.8 241.3 218.6 238.5 218.6 234.9 z" stroke-linecap="round" />
</g>
		<g transform="matrix(1 0 0 1 90.95000000000002 67.69999999999999)"  >
<path style="stroke: none; stroke-width: 1; stroke-dasharray: none; stroke-linecap: butt; stroke-dashoffset: 0; stroke-linejoin: miter; stroke-miterlimit: 4; fill: rgb(255,255,255); fill-rule: nonzero; opacity: 1;"  paint-order="stroke"  transform=" translate(-227.4, -217.7)" d="M 227.4 224.6 C 231.20000000000002 224.6 234.3 221.5 234.3 217.7 C 234.3 213.89999999999998 231.20000000000002 210.79999999999998 227.4 210.79999999999998 C 223.6 210.79999999999998 220.5 213.89999999999998 220.5 217.7 C 220.5 221.5 223.6 224.6 227.4 224.6 z" stroke-linecap="round" />
</g>
		<g transform="matrix(1 0 0 1 -133.95 62.5)"  >
<path style="stroke: none; stroke-width: 1; stroke-dasharray: none; stroke-linecap: butt; stroke-dashoffset: 0; stroke-linejoin: miter; stroke-miterlimit: 4; fill: rgb(255,255,255); fill-rule: nonzero; opacity: 1;"  paint-order="stroke"  transform=" translate(-2.5, -212.5)" d="M 2.5 210 C 1.1 210 0 211.1 0 212.5 C 0 213.9 1.1 215 2.5 215 C 3.9 215 5 213.9 5 212.5 C 5 211.1 3.9 210 2.5 210 z" stroke-linecap="round" />
</g>
		<g transform="matrix(1 0 0 1 -117.44999999999999 88.20000000000002)"  >
<path style="stroke: none; stroke-width: 1; stroke-dasharray: none; stroke-linecap: butt; stroke-dashoffset: 0; stroke-linejoin: miter; stroke-miterlimit: 4; fill: rgb(255,255,255); fill-rule: nonzero; opacity: 1;"  paint-order="stroke"  transform=" translate(-19, -238.20000000000002)" d="M 19 234.8 C 17.1 234.8 15.6 236.3 15.6 238.20000000000002 C 15.6 240.10000000000002 17.1 241.60000000000002 19 241.60000000000002 C 20.9 241.60000000000002 22.4 240.10000000000002 22.4 238.20000000000002 C 22.4 236.3 20.9 234.8 19 234.8 z" stroke-linecap="round" />
</g>
		<g transform="matrix(1 0 0 1 -97.14999999999999 108.89999999999998)"  >
<circle style="stroke: none; stroke-width: 1; stroke-dasharray: none; stroke-linecap: butt; stroke-dashoffset: 0; stroke-linejoin: miter; stroke-miterlimit: 4; fill: rgb(255,255,255); fill-rule: nonzero; opacity: 1;"  paint-order="stroke"  cx="0" cy="0" r="4.2" />
</g>
		<g transform="matrix(1 0 0 1 -73.85 124.89999999999998)"  >
<circle style="stroke: none; stroke-width: 1; stroke-dasharray: none; stroke-linecap: butt; stroke-dashoffset: 0; stroke-linejoin: miter; stroke-miterlimit: 4; fill: rgb(255,255,255); fill-rule: nonzero; opacity: 1;"  paint-order="stroke"  cx="0" cy="0" r="5.1" />
</g>
		<g transform="matrix(1 0 0 1 -48.349999999999994 135.79999999999995)"  >
<path style="stroke: none; stroke-width: 1; stroke-dasharray: none; stroke-linecap: butt; stroke-dashoffset: 0; stroke-linejoin: miter; stroke-miterlimit: 4; fill: rgb(255,255,255); fill-rule: nonzero; opacity: 1;"  paint-order="stroke"  transform=" translate(-88.1, -285.79999999999995)" d="M 88.1 279.9 C 84.8 279.9 82.19999999999999 282.59999999999997 82.19999999999999 285.79999999999995 C 82.19999999999999 289.09999999999997 84.89999999999999 291.69999999999993 88.1 291.69999999999993 C 91.39999999999999 291.69999999999993 94 288.99999999999994 94 285.79999999999995 C 94 282.5 91.4 279.9 88.1 279.9 z" stroke-linecap="round" />
</g>
		<g transform="matrix(1 0 0 1 -21.44999999999999 141.7)"  >
<circle style="stroke: none; stroke-width: 1; stroke-dasharray: none; stroke-linecap: butt; stroke-dashoffset: 0; stroke-linejoin: miter; stroke-miterlimit: 4; fill: rgb(255,255,255); fill-rule: nonzero; opacity: 1;"  paint-order="stroke"  cx="0" cy="0" r="6.8" />
</g>
		<g transform="matrix(1 0 0 1 5.950000000000017 142.39999999999998)"  >
<circle style="stroke: none; stroke-width: 1; stroke-dasharray: none; stroke-linecap: butt; stroke-dashoffset: 0; stroke-linejoin: miter; stroke-miterlimit: 4; fill: rgb(255,255,255); fill-rule: nonzero; opacity: 1;"  paint-order="stroke"  cx="0" cy="0" r="7.6" />
</g>
		<g transform="matrix(1 0 0 1 33.25 137.8)"  >
<path style="stroke: none; stroke-width: 1; stroke-dasharray: none; stroke-linecap: butt; stroke-dashoffset: 0; stroke-linejoin: miter; stroke-miterlimit: 4; fill: rgb(255,255,255); fill-rule: nonzero; opacity: 1;"  paint-order="stroke"  transform=" translate(-169.7, -287.8)" d="M 169.7 279.3 C 165 279.3 161.2 283.1 161.2 287.8 C 161.2 292.5 165 296.3 169.7 296.3 C 174.39999999999998 296.3 178.2 292.5 178.2 287.8 C 178.2 283.1 174.4 279.3 169.7 279.3 z" stroke-linecap="round" />
</g>
		<g transform="matrix(1 0 0 1 59.55000000000001 127.89999999999998)"  >
<circle style="stroke: none; stroke-width: 1; stroke-dasharray: none; stroke-linecap: butt; stroke-dashoffset: 0; stroke-linejoin: miter; stroke-miterlimit: 4; fill: rgb(255,255,255); fill-rule: nonzero; opacity: 1;"  paint-order="stroke"  cx="0" cy="0" r="9.4" />
</g>
		<g transform="matrix(1 0 0 1 84.05000000000001 112.60000000000002)"  >
<path style="stroke: none; stroke-width: 1; stroke-dasharray: none; stroke-linecap: butt; stroke-dashoffset: 0; stroke-linejoin: miter; stroke-miterlimit: 4; fill: rgb(255,255,255); fill-rule: nonzero; opacity: 1;"  paint-order="stroke"  transform=" translate(-220.5, -262.6)" d="M 220.5 252.4 C 214.9 252.4 210.3 257 210.3 262.6 C 210.3 268.20000000000005 214.9 272.8 220.5 272.8 C 226.1 272.8 230.7 268.2 230.7 262.6 C 230.7 257.00000000000006 226.1 252.4 220.5 252.4 z" stroke-linecap="round" />
</g>
		<g transform="matrix(1 0 0 1 105.95000000000002 91.79999999999998)"  >
<path style="stroke: none; stroke-width: 1; stroke-dasharray: none; stroke-linecap: butt; stroke-dashoffset: 0; stroke-linejoin: miter; stroke-miterlimit: 4; fill: rgb(255,255,255); fill-rule: nonzero; opacity: 1;"  paint-order="stroke"  transform=" translate(-242.4, -241.79999999999998)" d="M 242.4 230.7 C 236.3 230.7 231.3 235.7 231.3 241.79999999999998 C 231.3 247.89999999999998 236.3 252.89999999999998 242.4 252.89999999999998 C 248.5 252.89999999999998 253.5 247.89999999999998 253.5 241.79999999999998 C 253.5 235.7 248.6 230.7 242.4 230.7 z" stroke-linecap="round" />
</g>
		<g transform="matrix(1 0 0 1 124.55000000000001 65.30000000000001)"  >
<circle style="stroke: none; stroke-width: 1; stroke-dasharray: none; stroke-linecap: butt; stroke-dashoffset: 0; stroke-linejoin: miter; stroke-miterlimit: 4; fill: rgb(255,255,255); fill-rule: nonzero; opacity: 1;"  paint-order="stroke"  cx="0" cy="0" r="11.9" />
</g>
		<g transform="matrix(1 0 0 1 116.75 -73.3)"  >
<circle style="stroke: none; stroke-width: 1; stroke-dasharray: none; stroke-linecap: butt; stroke-dashoffset: 0; stroke-linejoin: miter; stroke-miterlimit: 4; fill: rgb(255,255,255); fill-rule: nonzero; opacity: 1;"  paint-order="stroke"  cx="0" cy="0" r="0.9" />
</g>
		<g transform="matrix(1 0 0 1 99.75 -89.8)"  >
<path style="stroke: none; stroke-width: 1; stroke-dasharray: none; stroke-linecap: butt; stroke-dashoffset: 0; stroke-linejoin: miter; stroke-miterlimit: 4; fill: rgb(255,255,255); fill-rule: nonzero; opacity: 1;"  paint-order="stroke"  transform=" translate(-236.2, -60.2)" d="M 234.7 60.2 C 234.7 61 235.29999999999998 61.7 236.2 61.7 C 237 61.7 237.7 61 237.7 60.2 C 237.7 59.400000000000006 237.1 58.7 236.2 58.7 C 235.4 58.8 234.7 59.4 234.7 60.2 z" stroke-linecap="round" />
</g>
		<g transform="matrix(1 0 0 1 81.25 -102.8)"  >
<circle style="stroke: none; stroke-width: 1; stroke-dasharray: none; stroke-linecap: butt; stroke-dashoffset: 0; stroke-linejoin: miter; stroke-miterlimit: 4; fill: rgb(255,255,255); fill-rule: nonzero; opacity: 1;"  paint-order="stroke"  cx="0" cy="0" r="2" />
</g>
		<g transform="matrix(1 0 0 1 61.64708330230059 -112.4)"  >
<path style="stroke: none; stroke-width: 1; stroke-dasharray: none; stroke-linecap: butt; stroke-dashoffset: 0; stroke-linejoin: miter; stroke-miterlimit: 4; fill: rgb(255,255,255); fill-rule: nonzero; opacity: 1;"  paint-order="stroke"  transform=" translate(-198.09708330230058, -37.6)" d="M 198.1 40.1 C 199.5 40.1 200.6 39 200.6 37.6 C 200.6 36.2 199.5 35.1 198.1 35.1 C 196.7 35.1 195.6 36.2 195.6 37.6 C 195.5 39 196.7 40.1 198.1 40.1 z" stroke-linecap="round" />
</g>
		<g transform="matrix(1 0 0 1 41.25 -118.6)"  >
<path style="stroke: none; stroke-width: 1; stroke-dasharray: none; stroke-linecap: butt; stroke-dashoffset: 0; stroke-linejoin: miter; stroke-miterlimit: 4; fill: rgb(255,255,255); fill-rule: nonzero; opacity: 1;"  paint-order="stroke"  transform=" translate(-177.7, -31.4)" d="M 177.7 34.5 C 179.39999999999998 34.5 180.79999999999998 33.1 180.79999999999998 31.4 C 180.79999999999998 29.7 179.39999999999998 28.299999999999997 177.7 28.299999999999997 C 176 28.299999999999997 174.6 29.699999999999996 174.6 31.4 C 174.6 33.1 176 34.5 177.7 34.5 z" stroke-linecap="round" />
</g>
		<g transform="matrix(1 0 0 1 20.55000000000001 -121.4)"  >
<circle style="stroke: none; stroke-width: 1; stroke-dasharray: none; stroke-linecap: butt; stroke-dashoffset: 0; stroke-linejoin: miter; stroke-miterlimit: 4; fill: rgb(255,255,255); fill-rule: nonzero; opacity: 1;"  paint-order="stroke"  cx="0" cy="0" r="3.6" />
</g>
		<g transform="matrix(1 0 0 1 -0.25 -120.8)"  >
<path style="stroke: none; stroke-width: 1; stroke-dasharray: none; stroke-linecap: butt; stroke-dashoffset: 0; stroke-linejoin: miter; stroke-miterlimit: 4; fill: rgb(255,255,255); fill-rule: nonzero; opacity: 1;"  paint-order="stroke"  transform=" translate(-136.2, -29.2)" d="M 136.2 33.4 C 138.5 33.4 140.39999999999998 31.5 140.39999999999998 29.2 C 140.39999999999998 26.9 138.49999999999997 25 136.2 25 C 133.89999999999998 25 132 26.9 132 29.2 C 132 31.5 133.9 33.4 136.2 33.4 z" stroke-linecap="round" />
</g>
		<g transform="matrix(1 0 0 1 -20.551640328656205 -116.80000000000001)"  >
<path style="stroke: none; stroke-width: 1; stroke-dasharray: none; stroke-linecap: butt; stroke-dashoffset: 0; stroke-linejoin: miter; stroke-miterlimit: 4; fill: rgb(255,255,255); fill-rule: nonzero; opacity: 1;"  paint-order="stroke"  transform=" translate(-115.89835967134378, -33.199999999999996)" d="M 115.9 37.9 C 118.5 37.9 120.60000000000001 35.8 120.60000000000001 33.199999999999996 C 120.60000000000001 30.599999999999994 118.50000000000001 28.499999999999996 115.9 28.499999999999996 C 113.30000000000001 28.499999999999996 111.2 30.599999999999998 111.2 33.199999999999996 C 111.1 35.7 113.3 37.9 115.9 37.9 z" stroke-linecap="round" />
</g>
		<g transform="matrix(1 0 0 1 -40.14999999999999 -109.5)"  >
<path style="stroke: none; stroke-width: 1; stroke-dasharray: none; stroke-linecap: butt; stroke-dashoffset: 0; stroke-linejoin: miter; stroke-miterlimit: 4; fill: rgb(255,255,255); fill-rule: nonzero; opacity: 1;"  paint-order="stroke"  transform=" translate(-96.3, -40.5)" d="M 96.3 35.2 C 93.39999999999999 35.2 91 37.6 91 40.5 C 91 43.4 93.4 45.8 96.3 45.8 C 99.2 45.8 101.6 43.4 101.6 40.5 C 101.5 37.5 99.2 35.2 96.3 35.2 z" stroke-linecap="round" />
</g>
		<g transform="matrix(1 0 0 1 -58.64999999999999 -98.9)"  >
<path style="stroke: none; stroke-width: 1; stroke-dasharray: none; stroke-linecap: butt; stroke-dashoffset: 0; stroke-linejoin: miter; stroke-miterlimit: 4; fill: rgb(255,255,255); fill-rule: nonzero; opacity: 1;"  paint-order="stroke"  transform=" translate(-77.8, -51.099999999999994)" d="M 77.8 45.3 C 74.6 45.3 72 47.9 72 51.099999999999994 C 72 54.29999999999999 74.6 56.89999999999999 77.8 56.89999999999999 C 81 56.89999999999999 83.6 54.29999999999999 83.6 51.099999999999994 C 83.6 47.9 81 45.3 77.8 45.3 z" stroke-linecap="round" />
</g>
		<g transform="matrix(1 0 0 1 -75.75 -84.9)"  >
<path style="stroke: none; stroke-width: 1; stroke-dasharray: none; stroke-linecap: butt; stroke-dashoffset: 0; stroke-linejoin: miter; stroke-miterlimit: 4; fill: rgb(255,255,255); fill-rule: nonzero; opacity: 1;"  paint-order="stroke"  transform=" translate(-60.699999999999996, -65.1)" d="M 54.3 65.1 C 54.3 68.6 57.199999999999996 71.5 60.699999999999996 71.5 C 64.19999999999999 71.5 67.1 68.6 67.1 65.1 C 67.1 61.599999999999994 64.19999999999999 58.699999999999996 60.699999999999996 58.699999999999996 C 57.2 58.7 54.3 61.5 54.3 65.1 z" stroke-linecap="round" />
</g>
		<g transform="matrix(1 0 0 1 -90.94999999999999 -67.7)"  >
<circle style="stroke: none; stroke-width: 1; stroke-dasharray: none; stroke-linecap: butt; stroke-dashoffset: 0; stroke-linejoin: miter; stroke-miterlimit: 4; fill: rgb(255,255,255); fill-rule: nonzero; opacity: 1;"  paint-order="stroke"  cx="0" cy="0" r="6.9" />
</g>
		<g transform="matrix(1 0 0 1 133.95 -62.5)"  >
<circle style="stroke: none; stroke-width: 1; stroke-dasharray: none; stroke-linecap: butt; stroke-dashoffset: 0; stroke-linejoin: miter; stroke-miterlimit: 4; fill: rgb(255,255,255); fill-rule: nonzero; opacity: 1;"  paint-order="stroke"  cx="0" cy="0" r="2.5" />
</g>
		<g transform="matrix(1 0 0 1 117.45000000000002 -88.19999999999999)"  >
<path style="stroke: none; stroke-width: 1; stroke-dasharray: none; stroke-linecap: butt; stroke-dashoffset: 0; stroke-linejoin: miter; stroke-miterlimit: 4; fill: rgb(255,255,255); fill-rule: nonzero; opacity: 1;"  paint-order="stroke"  transform=" translate(-253.9, -61.800000000000004)" d="M 253.9 65.2 C 255.8 65.2 257.3 63.7 257.3 61.800000000000004 C 257.3 59.900000000000006 255.8 58.400000000000006 253.9 58.400000000000006 C 252 58.400000000000006 250.5 59.900000000000006 250.5 61.800000000000004 C 250.6 63.7 252.1 65.2 253.9 65.2 z" stroke-linecap="round" />
</g>
		<g transform="matrix(1 0 0 1 97.15 -108.9)"  >
<circle style="stroke: none; stroke-width: 1; stroke-dasharray: none; stroke-linecap: butt; stroke-dashoffset: 0; stroke-linejoin: miter; stroke-miterlimit: 4; fill: rgb(255,255,255); fill-rule: nonzero; opacity: 1;"  paint-order="stroke"  cx="0" cy="0" r="4.2" />
</g>
		<g transform="matrix(1 0 0 1 73.85000000000002 -124.9)"  >
<circle style="stroke: none; stroke-width: 1; stroke-dasharray: none; stroke-linecap: butt; stroke-dashoffset: 0; stroke-linejoin: miter; stroke-miterlimit: 4; fill: rgb(255,255,255); fill-rule: nonzero; opacity: 1;"  paint-order="stroke"  cx="0" cy="0" r="5.1" />
</g>
		<g transform="matrix(1 0 0 1 48.45000000000002 -135.8)"  >
<path style="stroke: none; stroke-width: 1; stroke-dasharray: none; stroke-linecap: butt; stroke-dashoffset: 0; stroke-linejoin: miter; stroke-miterlimit: 4; fill: rgb(255,255,255); fill-rule: nonzero; opacity: 1;"  paint-order="stroke"  transform=" translate(-184.9, -14.2)" d="M 190.8 14.2 C 190.8 10.899999999999999 188.10000000000002 8.299999999999999 184.9 8.299999999999999 C 181.7 8.299999999999999 179 11 179 14.2 C 179 17.5 181.7 20.1 184.9 20.1 C 188.10000000000002 20.1 190.8 17.5 190.8 14.2 z" stroke-linecap="round" />
</g>
		<g transform="matrix(1 0 0 1 21.55000000000001 -141.7)"  >
<circle style="stroke: none; stroke-width: 1; stroke-dasharray: none; stroke-linecap: butt; stroke-dashoffset: 0; stroke-linejoin: miter; stroke-miterlimit: 4; fill: rgb(255,255,255); fill-rule: nonzero; opacity: 1;"  paint-order="stroke"  cx="0" cy="0" r="6.8" />
</g>
		<g transform="matrix(1 0 0 1 -5.949999999999989 -142.4)"  >
<circle style="stroke: none; stroke-width: 1; stroke-dasharray: none; stroke-linecap: butt; stroke-dashoffset: 0; stroke-linejoin: miter; stroke-miterlimit: 4; fill: rgb(255,255,255); fill-rule: nonzero; opacity: 1;"  paint-order="stroke"  cx="0" cy="0" r="7.6" />
</g>
		<g transform="matrix(1 0 0 1 -33.14999999999999 -137.8)"  >
<path style="stroke: none; stroke-width: 1; stroke-dasharray: none; stroke-linecap: butt; stroke-dashoffset: 0; stroke-linejoin: miter; stroke-miterlimit: 4; fill: rgb(255,255,255); fill-rule: nonzero; opacity: 1;"  paint-order="stroke"  transform=" translate(-103.3, -12.2)" d="M 111.8 12.2 C 111.8 7.499999999999999 108 3.6999999999999993 103.3 3.6999999999999993 C 98.6 3.6999999999999993 94.8 7.499999999999999 94.8 12.2 C 94.8 16.9 98.6 20.7 103.3 20.7 C 107.9 20.7 111.8 16.9 111.8 12.2 z" stroke-linecap="round" />
</g>
		<g transform="matrix(1 0 0 1 -59.55 -127.9)"  >
<path style="stroke: none; stroke-width: 1; stroke-dasharray: none; stroke-linecap: butt; stroke-dashoffset: 0; stroke-linejoin: miter; stroke-miterlimit: 4; fill: rgb(255,255,255); fill-rule: nonzero; opacity: 1;"  paint-order="stroke"  transform=" translate(-76.89999999999999, -22.1)" d="M 86.3 22.1 C 86.3 16.900000000000002 82.1 12.700000000000001 76.89999999999999 12.700000000000001 C 71.69999999999999 12.700000000000001 67.49999999999999 16.900000000000002 67.49999999999999 22.1 C 67.49999999999999 27.3 71.69999999999999 31.5 76.89999999999999 31.5 C 82.1 31.5 86.3 27.3 86.3 22.1 z" stroke-linecap="round" />
</g>
		<g transform="matrix(1 0 0 1 -84.05 -112.6)"  >
<path style="stroke: none; stroke-width: 1; stroke-dasharray: none; stroke-linecap: butt; stroke-dashoffset: 0; stroke-linejoin: miter; stroke-miterlimit: 4; fill: rgb(255,255,255); fill-rule: nonzero; opacity: 1;"  paint-order="stroke"  transform=" translate(-52.39999999999999, -37.400000000000006)" d="M 52.4 47.6 C 58 47.6 62.599999999999994 43 62.599999999999994 37.400000000000006 C 62.599999999999994 31.80000000000001 57.99999999999999 27.200000000000006 52.39999999999999 27.200000000000006 C 46.79999999999999 27.200000000000006 42.19999999999999 31.800000000000004 42.19999999999999 37.400000000000006 C 42.19999999999999 43.00000000000001 46.8 47.6 52.4 47.6 z" stroke-linecap="round" />
</g>
		<g transform="matrix(1 0 0 1 -105.94999999999999 -91.7)"  >
<circle style="stroke: none; stroke-width: 1; stroke-dasharray: none; stroke-linecap: butt; stroke-dashoffset: 0; stroke-linejoin: miter; stroke-miterlimit: 4; fill: rgb(255,255,255); fill-rule: nonzero; opacity: 1;"  paint-order="stroke"  cx="0" cy="0" r="11.1" />
</g>
		<g transform="matrix(1 0 0 1 -124.54999999999998 -65.3)"  >
<circle style="stroke: none; stroke-width: 1; stroke-dasharray: none; stroke-linecap: butt; stroke-dashoffset: 0; stroke-linejoin: miter; stroke-miterlimit: 4; fill: rgb(255,255,255); fill-rule: nonzero; opacity: 1;"  paint-order="stroke"  cx="0" cy="0" r="11.9" />
</g>
</g>
</g>
</g>
</g>
<g transform="matrix(1.9211538461538467 0 0 1.9211538461538467 820.7972088377605 491.6968309800902)" id="text-logo"  >
<g style=""  paint-order="stroke"   >
		<g transform="matrix(1 0 0 1 -5.684342e-14 0)" id="text-logo-path-0"  >
<path style="stroke: none; stroke-width: 0; stroke-dasharray: none; stroke-linecap: butt; stroke-dashoffset: 0; stroke-linejoin: miter; stroke-miterlimit: 4; fill: rgb(255,255,255); fill-rule: nonzero; opacity: 1;"  paint-order="stroke"  transform=" translate(-180.73499999999999, 19.49)" d="M 26.3 0.64 C 28.86 0.64 31.36 0.38 33.66 -0.06 L 39.1 6.46 L 45.95 0.7 L 42.18 -3.84 C 46.85 -7.55 49.28 -13.82 49.28 -22.46 C 49.28 -37.82 42.11 -45.44 26.3 -45.44 C 10.88 -45.44 3.2 -38.27 3.2 -22.46 C 3.2 -7.04 10.43 0.64 26.3 0.64 Z M 14.08 -22.46 C 14.08 -31.87 17.92 -36.48 26.3 -36.48 C 34.3 -36.48 38.4 -32 38.4 -22.46 C 38.4 -17.66 37.44 -14.14 35.46 -11.84 L 29.82 -18.62 L 22.98 -12.86 L 26.75 -8.32 L 26.3 -8.32 C 18.11 -8.32 14.08 -12.74 14.08 -22.46 Z M 91.58 0.64 C 106.88 0.64 114.56 -6.78 114.56 -22.46 C 114.56 -37.82 107.39 -45.44 91.58 -45.44 C 76.16 -45.44 68.48 -38.27 68.48 -22.46 C 68.48 -7.04 75.71 0.64 91.58 0.64 Z M 79.36 -22.46 C 79.36 -31.87 83.2 -36.48 91.58 -36.48 C 99.58 -36.48 103.68 -32 103.68 -22.46 C 103.68 -12.99 99.97 -8.32 91.58 -8.32 C 83.39 -8.32 79.36 -12.74 79.36 -22.46 Z M 133.76 0 L 161.09 0 C 170.56 0 175.17 -4.35 175.17 -14.08 C 175.17 -20.35 173.12 -24.51 169.09 -26.56 C 171.01 -28.48 171.97 -31.04 171.97 -34.24 C 171.97 -40.7 167.74 -44.8 161.41 -44.8 L 133.76 -44.8 L 133.76 0 Z M 144.64 -8.96 L 144.64 -19.2 L 161.09 -19.2 C 163.33 -19.2 164.29 -17.66 164.29 -14.08 C 164.29 -10.69 163.33 -8.96 161.09 -8.96 L 144.64 -8.96 Z M 144.64 -28.16 L 144.64 -35.84 L 158.98 -35.84 C 160.26 -35.84 161.09 -34.24 161.09 -32 C 161.09 -29.7 160.19 -28.16 158.98 -28.16 L 144.64 -28.16 Z M 217.47 0.64 C 232.77 0.64 240.45 -6.78 240.45 -22.46 C 240.45 -37.82 233.28 -45.44 217.47 -45.44 C 202.05 -45.44 194.37 -38.27 194.37 -22.46 C 194.37 -7.04 201.6 0.64 217.47 0.64 Z M 205.25 -22.46 C 205.25 -31.87 209.09 -36.48 217.47 -36.48 C 225.47 -36.48 229.57 -32 229.57 -22.46 C 229.57 -12.99 225.86 -8.32 217.47 -8.32 C 209.28 -8.32 205.25 -12.74 205.25 -22.46 Z M 273.73 0 L 284.61 0 L 284.61 -35.84 L 298.69 -35.84 L 298.69 -44.8 L 259.65 -44.8 L 259.65 -35.84 L 273.73 -35.84 L 273.73 0 Z M 338.05 0.64 C 348.74 0.64 354.37 -1.66 356.61 -5.82 C 357.7 -7.87 358.27 -10.62 358.27 -13.95 C 358.27 -22.66 354.24 -26.88 342.91 -26.88 L 338.05 -26.88 C 333.57 -26.88 331.01 -26.88 329.73 -28.16 C 329.15 -28.74 328.83 -29.76 328.83 -31.17 C 328.83 -34.05 329.6 -35.39 332.22 -36.03 C 333.57 -36.35 335.49 -36.48 338.11 -36.48 C 341.89 -36.48 343.81 -36.16 345.09 -34.18 C 345.73 -33.22 346.05 -31.68 346.05 -29.7 L 356.99 -29.7 C 356.99 -41.47 350.59 -45.44 338.11 -45.44 C 327.42 -45.44 321.86 -43.14 319.62 -38.98 C 318.46 -36.93 317.89 -34.18 317.89 -30.85 C 317.89 -22.14 321.92 -17.92 333.25 -17.92 L 338.05 -17.92 C 342.34 -17.92 345.09 -17.66 346.43 -16.38 C 347.01 -15.74 347.33 -14.85 347.33 -13.63 C 347.33 -10.75 346.62 -9.47 344 -8.83 C 342.59 -8.45 340.67 -8.32 338.05 -8.32 C 333.44 -8.32 331.2 -8.64 329.86 -10.62 C 329.15 -11.58 328.83 -13.06 328.83 -15.1 L 317.89 -15.1 C 317.89 -6.98 320.96 -2.69 326.91 -0.77 C 329.86 0.19 333.5 0.64 338.05 0.64 Z" stroke-linecap="round" />
</g>
</g>
</g>
<g transform="matrix(1.9211538461538467 0 0 1.9211538461538467 821.0728897683382 579.480655622267)" id="tagline-2078f519-5b7f-4b46-8ee9-a9d84ddab6b9-logo"  >
<g style=""  paint-order="stroke"   >
		<g transform="matrix(1 0 0 1 -5.684342e-14 0)" id="tagline-2078f519-5b7f-4b46-8ee9-a9d84ddab6b9-logo-path-0"  >
<path style="stroke: none; stroke-width: 0; stroke-dasharray: none; stroke-linecap: butt; stroke-dashoffset: 0; stroke-linejoin: miter; stroke-miterlimit: 4; fill: rgb(127,127,127); fill-rule: nonzero; opacity: 1;"  paint-order="stroke"  transform=" translate(-175.095, 9.435)" d="M 5.24 -18.41 L 4.78 -18.87 L 4.46 -18.95 L 4 -18.98 L 3.51 -18.95 L 3.21 -18.98 L 2.7 -18.79 L 2.35 -18.93 L 1.89 -18.9 L 1.46 -18.55 L 1.43 -17.98 L 1.46 -17.79 L 1.51 -17.31 L 1.48 -16.88 L 1.43 -16.52 L 1.46 -16.15 L 1.43 -15.58 L 1.46 -15.2 L 1.43 -14.82 L 1.48 -14.47 L 1.48 -14.01 L 1.51 -13.53 L 1.54 -13.2 L 1.48 -12.8 L 1.51 -12.47 L 1.46 -11.96 L 1.48 -11.72 L 1.43 -11.12 L 1.54 -10.72 L 1.46 -10.48 L 1.51 -10.15 L 1.51 -9.53 L 1.43 -9.29 L 1.43 -8.78 L 1.48 -8.51 L 1.48 -8.02 L 1.46 -7.51 L 1.48 -7.29 L 1.46 -6.86 L 1.46 -5.94 L 1.48 -5.51 L 1.48 -5.32 L 1.51 -4.86 L 1.43 -4.54 L 1.54 -4.1 L 1.54 -3.73 L 1.46 -3.1 L 1.43 -2.83 L 1.54 -2.46 L 1.46 -1.94 L 1.54 -1.73 L 1.46 -1.11 L 1.46 -0.73 L 1.48 -0.27 L 1.92 0.14 L 2.32 -0.03 L 2.7 0.03 L 3.13 0.03 L 3.56 -0.03 L 4.37 -0.03 L 4.78 0.14 L 5.29 -0.35 L 5.29 -0.78 L 5.26 -1.19 L 5.32 -1.65 L 5.21 -2 L 5.32 -2.38 L 5.26 -2.89 L 5.32 -3.29 L 5.32 -3.94 L 5.29 -4.35 L 5.29 -5.18 L 5.32 -5.67 L 5.21 -5.91 L 5.29 -6.29 L 5.24 -6.88 L 5.24 -7.64 L 5.26 -8.15 L 5.24 -8.56 L 5.29 -8.72 L 5.26 -9.31 L 5.29 -9.72 L 5.21 -10.02 L 5.26 -10.31 L 5.24 -10.72 L 5.29 -11.29 L 5.32 -11.64 L 5.21 -12.1 L 5.21 -12.42 L 5.24 -12.8 L 5.21 -13.18 L 5.29 -13.63 L 5.26 -13.93 L 5.29 -14.34 L 5.32 -14.9 L 5.24 -15.39 L 5.21 -15.58 L 5.32 -15.96 L 5.24 -16.47 L 5.29 -16.82 L 5.32 -17.17 L 5.24 -17.55 L 5.21 -18.12 Z M 31.08 -18.44 L 30.46 -18.98 L 30.05 -18.82 L 29.67 -18.85 L 29.21 -18.82 L 28.81 -18.77 L 28.32 -18.82 L 27.92 -18.98 L 27.54 -18.9 L 27.14 -18.5 L 27.14 -17.55 L 27.08 -17.36 L 27.14 -16.96 L 27.14 -16.5 L 27.11 -16.01 L 27.16 -15.58 L 27.05 -15.39 L 27.05 -14.88 L 27.16 -14.55 L 27.16 -14.15 L 27.08 -13.66 L 27.05 -13.31 L 27.08 -12.74 L 27.11 -12.45 L 27.05 -12.02 L 27.05 -11.61 L 27.14 -11.29 L 27.16 -10.75 L 27.08 -10.42 L 27.14 -9.91 L 27.08 -9.61 L 27.08 -8.91 L 27.16 -8.32 L 27.11 -7.99 L 27.05 -7.72 L 27.05 -7.1 L 27.14 -6.86 L 27.11 -6.29 L 27.05 -6.08 L 27.05 -5.72 L 27.14 -5.32 L 27.08 -4.94 L 27.08 -4.35 L 27.14 -3.89 L 27.11 -3.51 L 27.08 -3.24 L 27.05 -2.73 L 27.05 -2.38 L 27.14 -1.97 L 27.16 -1.62 L 27.05 -1.08 L 27.08 -0.76 L 27.08 -0.27 L 27.46 -0.11 L 27.97 0.11 L 28.35 0.05 L 28.84 0.05 L 29.19 0.11 L 29.59 -0.05 L 30.05 0.14 L 30.4 -0.11 L 30.91 -0.3 L 30.94 -0.81 L 30.89 -1.35 L 30.89 -1.7 L 30.94 -2.11 L 30.94 -2.38 L 30.83 -2.89 L 30.91 -3.29 L 30.86 -3.59 L 30.91 -4.05 L 30.86 -4.59 L 30.89 -5.02 L 30.86 -5.35 L 30.89 -5.78 L 30.89 -6.64 L 30.91 -6.88 L 30.83 -7.48 L 30.83 -8.26 L 30.94 -8.67 L 30.94 -9.07 L 31.05 -8.99 L 31.24 -8.56 L 31.27 -8.23 L 31.51 -7.83 L 31.75 -7.13 L 32 -6.88 L 32.13 -6.53 L 32.27 -6.1 L 32.4 -5.7 L 32.48 -5.26 L 32.67 -4.86 L 32.83 -4.48 L 32.94 -4.18 L 33.21 -3.89 L 33.32 -3.35 L 33.45 -3.08 L 33.62 -2.75 L 33.72 -2.35 L 33.89 -1.86 L 34.07 -1.48 L 34.26 -1.05 L 34.29 -0.86 L 34.53 -0.32 L 35.1 0.14 L 35.48 0.14 L 35.86 -0.08 L 36.37 -0.11 L 36.72 0.05 L 37.18 0.05 L 37.53 0.14 L 37.99 -0.05 L 38.5 -0.3 L 38.48 -0.76 L 38.42 -1.32 L 38.45 -1.59 L 38.42 -2.02 L 38.5 -2.29 L 38.45 -2.73 L 38.5 -3.27 L 38.39 -3.62 L 38.48 -3.94 L 38.39 -4.37 L 38.42 -4.94 L 38.45 -5.32 L 38.45 -5.56 L 38.42 -6.1 L 38.42 -6.94 L 38.39 -7.21 L 38.42 -7.56 L 38.5 -8.1 L 38.42 -8.32 L 38.39 -8.94 L 38.45 -9.23 L 38.42 -9.75 L 38.42 -10.56 L 38.5 -10.83 L 38.48 -11.34 L 38.39 -11.53 L 38.45 -12.15 L 38.39 -12.42 L 38.39 -13.74 L 38.45 -14.09 L 38.45 -14.42 L 38.42 -14.93 L 38.5 -15.17 L 38.42 -15.61 L 38.39 -16.07 L 38.39 -16.47 L 38.48 -17.01 L 38.39 -17.17 L 38.48 -17.74 L 38.42 -18.01 L 38.39 -18.44 L 37.99 -18.98 L 37.56 -18.85 L 37.21 -18.87 L 36.72 -18.77 L 36.29 -18.98 L 35.88 -19.01 L 35.51 -18.82 L 35.07 -18.98 L 34.64 -18.47 L 34.72 -18.12 L 34.61 -17.74 L 34.67 -17.14 L 34.64 -16.9 L 34.61 -16.44 L 34.61 -16.04 L 34.7 -15.63 L 34.64 -15.2 L 34.64 -14.77 L 34.72 -14.36 L 34.64 -13.85 L 34.72 -13.53 L 34.67 -13.04 L 34.64 -12.72 L 34.64 -12.26 L 34.72 -11.91 L 34.61 -11.61 L 34.61 -11.18 L 34.67 -10.75 L 34.61 -10.21 L 34.67 -9.86 L 34.48 -9.75 L 34.37 -10.26 L 34.26 -10.56 L 34.07 -11.04 L 33.86 -11.23 L 33.75 -11.69 L 33.4 -12.45 L 33.34 -12.88 L 33.21 -13.1 L 32.99 -13.72 L 32.89 -14.09 L 32.75 -14.28 L 32.51 -14.74 L 32.4 -14.98 L 32.24 -15.58 L 32.02 -15.9 L 31.94 -16.23 L 31.78 -16.5 L 31.67 -16.96 L 31.46 -17.44 L 31.32 -17.87 L 31.16 -18.14 Z M 69.8 -15.15 L 70.2 -15.55 L 70.28 -15.93 L 70.31 -16.36 L 70.25 -16.79 L 70.2 -17.12 L 70.23 -17.55 L 70.23 -18.04 L 70.28 -18.36 L 69.8 -18.85 L 69.47 -18.87 L 68.63 -18.87 L 68.28 -18.85 L 67.88 -18.77 L 67.47 -18.79 L 67.04 -18.93 L 66.58 -19.01 L 66.2 -18.82 L 65.83 -18.9 L 65.39 -18.93 L 65.02 -18.85 L 64.53 -18.87 L 64.21 -18.77 L 63.77 -18.77 L 63.34 -18.9 L 62.94 -19.01 L 62.53 -18.93 L 62.13 -18.93 L 61.8 -18.95 L 61.32 -18.87 L 60.97 -18.93 L 60.48 -18.93 L 60.07 -18.85 L 59.78 -18.79 L 59.27 -18.93 L 58.97 -18.55 L 58.91 -17.95 L 58.97 -17.55 L 58.91 -17.12 L 58.91 -16.66 L 58.94 -16.5 L 58.97 -15.82 L 58.91 -15.61 L 59.29 -15.15 L 59.8 -15.09 L 60.1 -15.04 L 60.59 -15.07 L 61.05 -14.98 L 61.45 -15.2 L 61.8 -15.2 L 62.32 -15.04 L 62.72 -14.74 L 62.72 -14.23 L 62.64 -13.96 L 62.64 -13.42 L 62.69 -13.01 L 62.75 -12.77 L 62.64 -12.15 L 62.72 -11.8 L 62.75 -11.39 L 62.75 -10.91 L 62.64 -10.56 L 62.64 -10.18 L 62.69 -9.75 L 62.75 -9.4 L 62.72 -8.88 L 62.69 -8.48 L 62.75 -8.1 L 62.64 -7.64 L 62.64 -7.05 L 62.69 -6.64 L 62.64 -6.08 L 62.69 -5.83 L 62.72 -5.21 L 62.69 -5 L 62.72 -4.59 L 62.69 -4.16 L 62.67 -3.65 L 62.72 -3.13 L 62.67 -2.94 L 62.72 -2.54 L 62.67 -2 L 62.69 -1.67 L 62.72 -1.19 L 62.64 -0.89 L 62.75 -0.49 L 63.15 -0.03 L 63.5 0.05 L 63.94 0.11 L 64.34 0.11 L 64.83 0.14 L 65.23 0.11 L 65.56 -0.11 L 66.04 -0.03 L 66.45 -0.49 L 66.53 -0.81 L 66.5 -1.24 L 66.5 -1.54 L 66.53 -1.94 L 66.42 -2.46 L 66.45 -2.75 L 66.5 -3.13 L 66.42 -3.7 L 66.42 -4.13 L 66.47 -4.37 L 66.45 -4.97 L 66.45 -5.29 L 66.42 -5.7 L 66.5 -6.21 L 66.42 -6.56 L 66.45 -6.97 L 66.45 -7.34 L 66.47 -7.67 L 66.5 -8.23 L 66.53 -8.53 L 66.42 -9.45 L 66.47 -9.86 L 66.5 -10.13 L 66.53 -10.56 L 66.53 -11.77 L 66.45 -12.23 L 66.42 -12.61 L 66.45 -13.15 L 66.42 -13.45 L 66.42 -13.82 L 66.45 -14.26 L 66.45 -14.58 L 66.93 -15.12 L 67.28 -15.15 L 67.72 -15.12 L 68.58 -15.23 L 68.93 -15.09 L 69.34 -15.01 Z M 100.87 -18.5 L 100.41 -18.98 L 100.06 -18.98 L 99.55 -18.85 L 99.2 -18.79 L 98.82 -18.82 L 98.36 -18.93 L 98.01 -18.79 L 97.63 -18.95 L 97.23 -18.9 L 96.74 -18.98 L 96.31 -18.87 L 95.9 -19.01 L 95.5 -18.82 L 95.09 -18.93 L 94.74 -18.98 L 94.31 -18.93 L 93.96 -18.95 L 93.5 -18.98 L 93.12 -18.85 L 92.69 -18.95 L 92.31 -19.01 L 91.96 -18.79 L 91.48 -18.85 L 91.04 -18.95 L 90.77 -18.6 L 90.69 -18.2 L 90.75 -17.71 L 90.69 -17.14 L 90.77 -16.79 L 90.69 -16.44 L 90.69 -16.2 L 90.77 -15.79 L 90.69 -15.34 L 90.77 -14.98 L 90.69 -14.34 L 90.69 -13.93 L 90.72 -13.58 L 90.69 -13.2 L 90.69 -12.85 L 90.72 -12.53 L 90.75 -12.15 L 90.75 -11.69 L 90.72 -11.37 L 90.77 -10.88 L 90.67 -10.5 L 90.69 -9.99 L 90.72 -9.56 L 90.72 -9.26 L 90.77 -8.8 L 90.77 -8.37 L 90.69 -7.99 L 90.75 -7.72 L 90.72 -7.26 L 90.75 -6.78 L 90.67 -6.43 L 90.72 -6.02 L 90.69 -5.54 L 90.72 -5.24 L 90.67 -4.72 L 90.69 -4.37 L 90.67 -4 L 90.69 -3.67 L 90.69 -3.1 L 90.75 -2.86 L 90.69 -2.51 L 90.67 -1.92 L 90.77 -1.57 L 90.72 -1.13 L 90.77 -0.86 L 90.72 -0.32 L 91.04 0.14 L 91.5 0.05 L 91.94 0.11 L 92.34 0.05 L 92.77 0.11 L 93.15 0 L 93.47 -0.05 L 93.93 0.11 L 94.28 -0.05 L 94.77 -0.08 L 95.15 0.14 L 95.53 0.05 L 95.98 0 L 96.8 0 L 97.17 0.14 L 97.52 0.03 L 98.01 0.14 L 98.36 0.11 L 98.82 0.14 L 99.2 0.03 L 99.6 -0.05 L 100.03 0.14 L 100.36 0 L 100.87 -0.3 L 100.84 -0.86 L 100.79 -1.3 L 100.82 -1.65 L 100.82 -2.16 L 100.79 -2.56 L 100.87 -3.02 L 100.82 -3.46 L 100.36 -3.65 L 100.06 -3.73 L 99.6 -3.78 L 99.17 -3.73 L 98.79 -3.73 L 98.44 -3.81 L 97.98 -3.7 L 97.63 -3.75 L 97.25 -3.75 L 96.82 -3.78 L 96.07 -3.78 L 95.66 -3.73 L 95.34 -3.83 L 94.88 -3.67 L 94.53 -4.32 L 94.53 -4.48 L 94.5 -5.02 L 94.5 -5.51 L 94.55 -5.75 L 94.45 -6.24 L 94.47 -6.72 L 94.45 -7.18 L 94.88 -7.67 L 95.31 -7.56 L 95.63 -7.59 L 96.04 -7.61 L 96.47 -7.48 L 96.85 -7.56 L 97.28 -7.53 L 97.74 -7.48 L 98.14 -7.45 L 98.58 -7.56 L 98.93 -7.51 L 99.28 -7.59 L 99.68 -7.99 L 99.71 -8.34 L 99.77 -8.86 L 99.74 -9.23 L 99.77 -9.67 L 99.74 -10.07 L 99.74 -10.91 L 99.31 -11.31 L 98.95 -11.21 L 98.5 -11.23 L 98.17 -11.37 L 97.66 -11.42 L 97.36 -11.26 L 96.93 -11.45 L 96.47 -11.21 L 96.07 -11.26 L 95.72 -11.23 L 95.26 -11.34 L 94.91 -11.45 L 94.5 -11.64 L 94.55 -12.2 L 94.5 -12.69 L 94.55 -13.12 L 94.55 -13.9 L 94.45 -14.23 L 94.55 -14.69 L 94.91 -15.2 L 95.23 -15.2 L 95.72 -15.01 L 96.09 -15.12 L 96.42 -15.07 L 96.85 -15.15 L 97.2 -15.17 L 97.66 -15.04 L 98.06 -15.07 L 98.5 -14.98 L 98.85 -15.12 L 99.2 -15.2 L 99.63 -15.04 L 100.01 -15.09 L 100.36 -15.07 L 100.82 -15.42 L 100.79 -15.88 L 100.76 -16.31 L 100.76 -16.88 L 100.84 -17.09 L 100.84 -17.68 L 100.82 -18.01 Z M 125.87 -18.58 L 125.52 -18.9 L 125.06 -18.87 L 124.66 -19.01 L 124.2 -18.98 L 123.77 -18.9 L 123.34 -18.79 L 122.93 -18.82 L 122.58 -18.9 L 122.12 -18.47 L 122.09 -17.95 L 122.17 -17.63 L 122.2 -17.23 L 122.09 -17.01 L 122.2 -16.36 L 122.09 -15.98 L 122.17 -15.58 L 122.12 -15.36 L 122.09 -14.74 L 122.2 -14.53 L 122.09 -14.12 L 122.2 -13.72 L 122.09 -13.26 L 122.2 -12.74 L 122.15 -12.53 L 122.12 -12.15 L 122.17 -11.77 L 122.17 -11.18 L 122.15 -10.96 L 122.17 -10.34 L 122.12 -10.02 L 122.15 -9.67 L 122.09 -9.13 L 122.2 -8.78 L 122.15 -8.48 L 122.12 -8.05 L 122.09 -7.67 L 122.15 -7.29 L 122.17 -6.75 L 122.17 -6.48 L 122.2 -5.99 L 122.09 -5.75 L 122.2 -5.13 L 122.2 -4.91 L 122.15 -4.54 L 122.09 -3.97 L 122.09 -3.59 L 122.2 -3.13 L 122.15 -2.83 L 122.09 -2.51 L 122.2 -2.08 L 122.12 -1.73 L 122.12 -1.32 L 122.17 -0.92 L 122.17 -0.43 L 122.53 0.03 L 122.96 0.03 L 123.39 -0.11 L 123.74 0.14 L 124.15 -0.11 L 124.52 -0.11 L 125.01 -0.05 L 125.33 0.03 L 125.82 0.05 L 126.17 -0.03 L 126.63 -0.03 L 126.98 0.11 L 127.79 0 L 128.22 0 L 128.6 0.08 L 129.06 -0.05 L 129.38 0 L 130.22 0.05 L 130.57 -0.11 L 130.98 0.14 L 131.46 0.11 L 131.89 -0.05 L 132.22 -0.46 L 132.22 -0.7 L 132.3 -1.22 L 132.27 -1.57 L 132.27 -2.11 L 132.22 -2.4 L 132.25 -2.81 L 132.27 -3.32 L 131.84 -3.7 L 131.49 -3.73 L 131.09 -3.89 L 130.71 -3.73 L 130.28 -3.75 L 129.9 -3.81 L 129.47 -3.89 L 129.03 -3.73 L 128.68 -3.73 L 128.22 -3.67 L 127.93 -3.89 L 127.55 -3.83 L 127.14 -3.67 L 126.66 -3.89 L 126.33 -3.81 L 125.95 -4.08 L 125.95 -4.51 L 125.9 -5.08 L 125.95 -5.43 L 125.9 -5.78 L 125.9 -6.29 L 125.98 -6.51 L 125.95 -7.1 L 125.95 -7.48 L 125.93 -7.96 L 125.98 -8.15 L 125.87 -8.72 L 125.87 -9.13 L 125.93 -9.37 L 125.87 -9.77 L 125.9 -10.39 L 125.95 -10.75 L 125.95 -10.99 L 125.9 -11.58 L 125.93 -12.04 L 125.87 -12.47 L 125.93 -12.66 L 125.9 -13.18 L 125.87 -13.58 L 125.95 -13.93 L 125.9 -14.42 L 125.98 -14.85 L 125.9 -15.25 L 125.93 -15.5 L 125.9 -16.12 L 125.93 -16.44 L 125.9 -16.88 L 125.95 -17.36 L 125.95 -18.09 Z M 156.47 -18.58 L 156.11 -18.9 L 155.66 -18.87 L 155.25 -19.01 L 154.79 -18.98 L 154.36 -18.9 L 153.93 -18.79 L 153.52 -18.82 L 153.17 -18.9 L 152.71 -18.47 L 152.69 -17.95 L 152.77 -17.63 L 152.79 -17.23 L 152.69 -17.01 L 152.79 -16.36 L 152.69 -15.98 L 152.77 -15.58 L 152.71 -15.36 L 152.69 -14.74 L 152.79 -14.53 L 152.69 -14.12 L 152.79 -13.72 L 152.69 -13.26 L 152.79 -12.74 L 152.74 -12.53 L 152.71 -12.15 L 152.77 -11.77 L 152.77 -11.18 L 152.74 -10.96 L 152.77 -10.34 L 152.71 -10.02 L 152.74 -9.67 L 152.69 -9.13 L 152.79 -8.78 L 152.74 -8.48 L 152.71 -8.05 L 152.69 -7.67 L 152.74 -7.29 L 152.77 -6.75 L 152.77 -6.48 L 152.79 -5.99 L 152.69 -5.75 L 152.79 -5.13 L 152.79 -4.91 L 152.74 -4.54 L 152.69 -3.97 L 152.69 -3.59 L 152.79 -3.13 L 152.74 -2.83 L 152.69 -2.51 L 152.79 -2.08 L 152.71 -1.73 L 152.71 -1.32 L 152.77 -0.92 L 152.77 -0.43 L 153.12 0.03 L 153.55 0.03 L 153.98 -0.11 L 154.33 0.14 L 154.74 -0.11 L 155.11 -0.11 L 155.6 -0.05 L 155.92 0.03 L 156.41 0.05 L 156.76 -0.03 L 157.22 -0.03 L 157.57 0.11 L 158.38 0 L 158.81 0 L 159.19 0.08 L 159.65 -0.05 L 159.97 0 L 160.81 0.05 L 161.16 -0.11 L 161.57 0.14 L 162.05 0.11 L 162.49 -0.05 L 162.81 -0.46 L 162.81 -0.7 L 162.89 -1.22 L 162.86 -1.57 L 162.86 -2.11 L 162.81 -2.4 L 162.84 -2.81 L 162.86 -3.32 L 162.43 -3.7 L 162.08 -3.73 L 161.68 -3.89 L 161.3 -3.73 L 160.87 -3.75 L 160.49 -3.81 L 160.06 -3.89 L 159.62 -3.73 L 159.27 -3.73 L 158.81 -3.67 L 158.52 -3.89 L 158.14 -3.83 L 157.73 -3.67 L 157.25 -3.89 L 156.92 -3.81 L 156.55 -4.08 L 156.55 -4.51 L 156.49 -5.08 L 156.55 -5.43 L 156.49 -5.78 L 156.49 -6.29 L 156.57 -6.51 L 156.55 -7.1 L 156.55 -7.48 L 156.52 -7.96 L 156.57 -8.15 L 156.47 -8.72 L 156.47 -9.13 L 156.52 -9.37 L 156.47 -9.77 L 156.49 -10.39 L 156.55 -10.75 L 156.55 -10.99 L 156.49 -11.58 L 156.52 -12.04 L 156.47 -12.47 L 156.52 -12.66 L 156.49 -13.18 L 156.47 -13.58 L 156.55 -13.93 L 156.49 -14.42 L 156.57 -14.85 L 156.49 -15.25 L 156.52 -15.5 L 156.49 -16.12 L 156.52 -16.44 L 156.49 -16.88 L 156.55 -17.36 L 156.55 -18.09 Z M 187.08 -18.41 L 186.62 -18.87 L 186.3 -18.95 L 185.84 -18.98 L 185.35 -18.95 L 185.06 -18.98 L 184.54 -18.79 L 184.19 -18.93 L 183.73 -18.9 L 183.3 -18.55 L 183.28 -17.98 L 183.3 -17.79 L 183.36 -17.31 L 183.33 -16.88 L 183.28 -16.52 L 183.3 -16.15 L 183.28 -15.58 L 183.3 -15.2 L 183.28 -14.82 L 183.33 -14.47 L 183.33 -14.01 L 183.36 -13.53 L 183.38 -13.2 L 183.33 -12.8 L 183.36 -12.47 L 183.3 -11.96 L 183.33 -11.72 L 183.28 -11.12 L 183.38 -10.72 L 183.3 -10.48 L 183.36 -10.15 L 183.36 -9.53 L 183.28 -9.29 L 183.28 -8.78 L 183.33 -8.51 L 183.33 -8.02 L 183.3 -7.51 L 183.33 -7.29 L 183.3 -6.86 L 183.3 -5.94 L 183.33 -5.51 L 183.33 -5.32 L 183.36 -4.86 L 183.28 -4.54 L 183.38 -4.1 L 183.38 -3.73 L 183.3 -3.1 L 183.28 -2.83 L 183.38 -2.46 L 183.3 -1.94 L 183.38 -1.73 L 183.3 -1.11 L 183.3 -0.73 L 183.33 -0.27 L 183.76 0.14 L 184.17 -0.03 L 184.54 0.03 L 184.98 0.03 L 185.41 -0.03 L 186.22 -0.03 L 186.62 0.14 L 187.14 -0.35 L 187.14 -0.78 L 187.11 -1.19 L 187.16 -1.65 L 187.06 -2 L 187.16 -2.38 L 187.11 -2.89 L 187.16 -3.29 L 187.16 -3.94 L 187.14 -4.35 L 187.14 -5.18 L 187.16 -5.67 L 187.06 -5.91 L 187.14 -6.29 L 187.08 -6.88 L 187.08 -7.64 L 187.11 -8.15 L 187.08 -8.56 L 187.14 -8.72 L 187.11 -9.31 L 187.14 -9.72 L 187.06 -10.02 L 187.11 -10.31 L 187.08 -10.72 L 187.14 -11.29 L 187.16 -11.64 L 187.06 -12.1 L 187.06 -12.42 L 187.08 -12.8 L 187.06 -13.18 L 187.14 -13.63 L 187.11 -13.93 L 187.14 -14.34 L 187.16 -14.9 L 187.08 -15.39 L 187.06 -15.58 L 187.16 -15.96 L 187.08 -16.47 L 187.14 -16.82 L 187.16 -17.17 L 187.08 -17.55 L 187.06 -18.12 Z M 211.87 -18.77 L 211.09 -18.71 L 210.79 -18.2 L 210.6 -17.9 L 210.22 -17.74 L 210.01 -17.5 L 209.63 -17.06 L 209.38 -16.85 L 209.03 -16.47 L 208.82 -15.85 L 208.79 -15.44 L 208.79 -15.07 L 208.76 -14.66 L 208.71 -14.26 L 208.76 -13.69 L 208.74 -13.39 L 208.71 -13.04 L 208.74 -12.45 L 208.71 -12.02 L 208.79 -11.61 L 208.82 -11.29 L 208.79 -10.75 L 208.74 -10.58 L 208.82 -9.99 L 208.71 -9.75 L 208.82 -9.31 L 208.71 -8.8 L 208.74 -8.4 L 208.82 -8.1 L 208.79 -7.7 L 208.82 -7.13 L 208.76 -6.7 L 208.74 -6.32 L 208.79 -5.86 L 208.76 -5.67 L 208.71 -5.18 L 208.74 -4.64 L 208.74 -4.4 L 208.76 -3.94 L 208.82 -3.56 L 208.74 -3 L 209.09 -2.38 L 209.36 -2.13 L 209.68 -1.75 L 209.9 -1.43 L 210.28 -1.3 L 210.52 -0.76 L 210.84 -0.65 L 211.09 -0.35 L 211.79 0.05 L 212.27 -0.08 L 212.71 0.03 L 213.08 -0.08 L 213.41 0.05 L 213.81 0.05 L 214.22 0.08 L 214.6 0.14 L 215 0.05 L 215.41 0 L 215.86 0.03 L 216.27 0.08 L 216.62 0 L 217.03 -0.05 L 217.75 -0.16 L 218.05 -0.57 L 218.32 -0.84 L 218.65 -1.19 L 218.89 -1.51 L 219.21 -1.7 L 219.51 -2.21 L 219.83 -2.29 L 220.13 -3.02 L 220.08 -3.38 L 220.05 -3.81 L 220.16 -4.83 L 220.16 -5.26 L 220.05 -5.56 L 220.08 -6.1 L 220.16 -6.29 L 220.05 -6.88 L 220.16 -7.1 L 220.05 -7.59 L 220.05 -8.13 L 220.16 -8.42 L 220.16 -8.75 L 220.05 -9.21 L 220.1 -9.77 L 220.16 -9.96 L 220.16 -10.42 L 220.08 -10.94 L 219.75 -11.34 L 219.24 -11.31 L 218.97 -11.29 L 218.46 -11.37 L 218.19 -11.23 L 217.7 -11.21 L 217.32 -11.23 L 216.92 -11.42 L 216.54 -11.26 L 216.16 -11.21 L 215.81 -11.45 L 215.38 -11.39 L 214.95 -11.39 L 214.65 -11.23 L 214.16 -10.99 L 214.19 -10.42 L 214.16 -10.02 L 214.19 -9.72 L 214.22 -9.21 L 214.24 -8.78 L 214.16 -8.51 L 214.27 -8.07 L 214.57 -7.42 L 215.03 -7.51 L 215.51 -7.45 L 215.92 -7.67 L 216.32 -7.18 L 216.38 -6.64 L 216.3 -6.37 L 216.35 -5.94 L 216.3 -5.37 L 216.3 -4.97 L 216.27 -4.67 L 216.3 -4.18 L 215.92 -3.75 L 215.49 -3.65 L 215 -3.75 L 214.65 -3.83 L 214.19 -3.83 L 213.73 -3.65 L 213.33 -3.73 L 212.89 -3.7 L 212.54 -4.29 L 212.54 -4.7 L 212.6 -4.91 L 212.57 -5.43 L 212.6 -5.91 L 212.49 -6.13 L 212.57 -6.56 L 212.52 -6.99 L 212.54 -7.45 L 212.6 -7.75 L 212.49 -8.18 L 212.6 -8.67 L 212.54 -9.15 L 212.54 -9.37 L 212.6 -9.91 L 212.6 -10.29 L 212.57 -10.61 L 212.54 -11.12 L 212.52 -11.53 L 212.49 -11.74 L 212.57 -12.34 L 212.6 -12.74 L 212.49 -12.99 L 212.52 -13.61 L 212.6 -13.9 L 212.52 -14.18 L 212.49 -14.63 L 212.92 -15.04 L 213.35 -15.12 L 213.76 -15.17 L 214.27 -15.07 L 214.6 -15.04 L 215.03 -15.07 L 215.46 -15.04 L 215.86 -15.17 L 216.27 -14.82 L 216.32 -14.42 L 216.35 -13.96 L 216.73 -13.39 L 217.16 -13.42 L 217.62 -13.37 L 218.05 -13.61 L 218.43 -13.37 L 218.89 -13.53 L 219.21 -13.37 L 219.73 -13.37 L 220.13 -13.74 L 220.05 -14.2 L 220.05 -14.71 L 220.08 -15.07 L 220.16 -15.31 L 220.13 -15.71 L 219.81 -16.58 L 219.46 -16.85 L 219.13 -17.17 L 218.86 -17.5 L 218.54 -17.71 L 218.24 -17.95 L 217.97 -18.28 L 217.7 -18.58 L 217 -18.93 L 216.65 -18.82 L 216.24 -18.79 L 215.86 -18.85 L 215.43 -18.79 L 215.03 -18.85 L 214.68 -18.82 L 214.19 -18.95 L 213.79 -18.95 L 213.43 -18.82 L 213.03 -18.98 L 212.62 -18.77 L 212.3 -18.82 Z M 251.86 -18.5 L 251.4 -18.98 L 251.05 -18.98 L 250.53 -18.85 L 250.18 -18.79 L 249.8 -18.82 L 249.34 -18.93 L 248.99 -18.79 L 248.62 -18.95 L 248.21 -18.9 L 247.72 -18.98 L 247.29 -18.87 L 246.89 -19.01 L 246.48 -18.82 L 246.08 -18.93 L 245.73 -18.98 L 245.29 -18.93 L 244.94 -18.95 L 244.48 -18.98 L 244.11 -18.85 L 243.67 -18.95 L 243.3 -19.01 L 242.95 -18.79 L 242.46 -18.85 L 242.03 -18.95 L 241.76 -18.6 L 241.68 -18.2 L 241.73 -17.71 L 241.68 -17.14 L 241.76 -16.79 L 241.68 -16.44 L 241.68 -16.2 L 241.76 -15.79 L 241.68 -15.34 L 241.76 -14.98 L 241.68 -14.34 L 241.68 -13.93 L 241.7 -13.58 L 241.68 -13.2 L 241.68 -12.85 L 241.7 -12.53 L 241.73 -12.15 L 241.73 -11.69 L 241.7 -11.37 L 241.76 -10.88 L 241.65 -10.5 L 241.68 -9.99 L 241.7 -9.56 L 241.7 -9.26 L 241.76 -8.8 L 241.76 -8.37 L 241.68 -7.99 L 241.73 -7.72 L 241.7 -7.26 L 241.73 -6.78 L 241.65 -6.43 L 241.7 -6.02 L 241.68 -5.54 L 241.7 -5.24 L 241.65 -4.72 L 241.68 -4.37 L 241.65 -4 L 241.68 -3.67 L 241.68 -3.1 L 241.73 -2.86 L 241.68 -2.51 L 241.65 -1.92 L 241.76 -1.57 L 241.7 -1.13 L 241.76 -0.86 L 241.7 -0.32 L 242.03 0.14 L 242.49 0.05 L 242.92 0.11 L 243.32 0.05 L 243.76 0.11 L 244.13 0 L 244.46 -0.05 L 244.92 0.11 L 245.27 -0.05 L 245.75 -0.08 L 246.13 0.14 L 246.51 0.05 L 246.97 0 L 247.78 0 L 248.16 0.14 L 248.51 0.03 L 248.99 0.14 L 249.34 0.11 L 249.8 0.14 L 250.18 0.03 L 250.59 -0.05 L 251.02 0.14 L 251.34 0 L 251.86 -0.3 L 251.83 -0.86 L 251.77 -1.3 L 251.8 -1.65 L 251.8 -2.16 L 251.77 -2.56 L 251.86 -3.02 L 251.8 -3.46 L 251.34 -3.65 L 251.05 -3.73 L 250.59 -3.78 L 250.15 -3.73 L 249.78 -3.73 L 249.43 -3.81 L 248.97 -3.7 L 248.62 -3.75 L 248.24 -3.75 L 247.81 -3.78 L 247.05 -3.78 L 246.64 -3.73 L 246.32 -3.83 L 245.86 -3.67 L 245.51 -4.32 L 245.51 -4.48 L 245.48 -5.02 L 245.48 -5.51 L 245.54 -5.75 L 245.43 -6.24 L 245.46 -6.72 L 245.43 -7.18 L 245.86 -7.67 L 246.29 -7.56 L 246.62 -7.59 L 247.02 -7.61 L 247.45 -7.48 L 247.83 -7.56 L 248.26 -7.53 L 248.72 -7.48 L 249.13 -7.45 L 249.56 -7.56 L 249.91 -7.51 L 250.26 -7.59 L 250.67 -7.99 L 250.69 -8.34 L 250.75 -8.86 L 250.72 -9.23 L 250.75 -9.67 L 250.72 -10.07 L 250.72 -10.91 L 250.29 -11.31 L 249.94 -11.21 L 249.48 -11.23 L 249.16 -11.37 L 248.64 -11.42 L 248.35 -11.26 L 247.91 -11.45 L 247.45 -11.21 L 247.05 -11.26 L 246.7 -11.23 L 246.24 -11.34 L 245.89 -11.45 L 245.48 -11.64 L 245.54 -12.2 L 245.48 -12.69 L 245.54 -13.12 L 245.54 -13.9 L 245.43 -14.23 L 245.54 -14.69 L 245.89 -15.2 L 246.21 -15.2 L 246.7 -15.01 L 247.08 -15.12 L 247.4 -15.07 L 247.83 -15.15 L 248.18 -15.17 L 248.64 -15.04 L 249.05 -15.07 L 249.48 -14.98 L 249.83 -15.12 L 250.18 -15.2 L 250.61 -15.04 L 250.99 -15.09 L 251.34 -15.07 L 251.8 -15.42 L 251.77 -15.88 L 251.75 -16.31 L 251.75 -16.88 L 251.83 -17.09 L 251.83 -17.68 L 251.8 -18.01 Z M 277.1 -18.44 L 276.48 -18.98 L 276.07 -18.82 L 275.7 -18.85 L 275.24 -18.82 L 274.83 -18.77 L 274.35 -18.82 L 273.94 -18.98 L 273.56 -18.9 L 273.16 -18.5 L 273.16 -17.55 L 273.1 -17.36 L 273.16 -16.96 L 273.16 -16.5 L 273.13 -16.01 L 273.19 -15.58 L 273.08 -15.39 L 273.08 -14.88 L 273.19 -14.55 L 273.19 -14.15 L 273.1 -13.66 L 273.08 -13.31 L 273.1 -12.74 L 273.13 -12.45 L 273.08 -12.02 L 273.08 -11.61 L 273.16 -11.29 L 273.19 -10.75 L 273.1 -10.42 L 273.16 -9.91 L 273.1 -9.61 L 273.1 -8.91 L 273.19 -8.32 L 273.13 -7.99 L 273.08 -7.72 L 273.08 -7.1 L 273.16 -6.86 L 273.13 -6.29 L 273.08 -6.08 L 273.08 -5.72 L 273.16 -5.32 L 273.1 -4.94 L 273.1 -4.35 L 273.16 -3.89 L 273.13 -3.51 L 273.1 -3.24 L 273.08 -2.73 L 273.08 -2.38 L 273.16 -1.97 L 273.19 -1.62 L 273.08 -1.08 L 273.1 -0.76 L 273.1 -0.27 L 273.48 -0.11 L 274 0.11 L 274.37 0.05 L 274.86 0.05 L 275.21 0.11 L 275.62 -0.05 L 276.07 0.14 L 276.43 -0.11 L 276.94 -0.3 L 276.97 -0.81 L 276.91 -1.35 L 276.91 -1.7 L 276.97 -2.11 L 276.97 -2.38 L 276.86 -2.89 L 276.94 -3.29 L 276.88 -3.59 L 276.94 -4.05 L 276.88 -4.59 L 276.91 -5.02 L 276.88 -5.35 L 276.91 -5.78 L 276.91 -6.64 L 276.94 -6.88 L 276.86 -7.48 L 276.86 -8.26 L 276.97 -8.67 L 276.97 -9.07 L 277.07 -8.99 L 277.26 -8.56 L 277.29 -8.23 L 277.53 -7.83 L 277.78 -7.13 L 278.02 -6.88 L 278.15 -6.53 L 278.29 -6.1 L 278.42 -5.7 L 278.5 -5.26 L 278.69 -4.86 L 278.86 -4.48 L 278.96 -4.18 L 279.23 -3.89 L 279.34 -3.35 L 279.48 -3.08 L 279.64 -2.75 L 279.75 -2.35 L 279.91 -1.86 L 280.1 -1.48 L 280.29 -1.05 L 280.31 -0.86 L 280.56 -0.32 L 281.12 0.14 L 281.5 0.14 L 281.88 -0.08 L 282.39 -0.11 L 282.74 0.05 L 283.2 0.05 L 283.55 0.14 L 284.01 -0.05 L 284.53 -0.3 L 284.5 -0.76 L 284.44 -1.32 L 284.47 -1.59 L 284.44 -2.02 L 284.53 -2.29 L 284.47 -2.73 L 284.53 -3.27 L 284.42 -3.62 L 284.5 -3.94 L 284.42 -4.37 L 284.44 -4.94 L 284.47 -5.32 L 284.47 -5.56 L 284.44 -6.1 L 284.44 -6.94 L 284.42 -7.21 L 284.44 -7.56 L 284.53 -8.1 L 284.44 -8.32 L 284.42 -8.94 L 284.47 -9.23 L 284.44 -9.75 L 284.44 -10.56 L 284.53 -10.83 L 284.5 -11.34 L 284.42 -11.53 L 284.47 -12.15 L 284.42 -12.42 L 284.42 -13.74 L 284.47 -14.09 L 284.47 -14.42 L 284.44 -14.93 L 284.53 -15.17 L 284.44 -15.61 L 284.42 -16.07 L 284.42 -16.47 L 284.5 -17.01 L 284.42 -17.17 L 284.5 -17.74 L 284.44 -18.01 L 284.42 -18.44 L 284.01 -18.98 L 283.58 -18.85 L 283.23 -18.87 L 282.74 -18.77 L 282.31 -18.98 L 281.91 -19.01 L 281.53 -18.82 L 281.1 -18.98 L 280.66 -18.47 L 280.75 -18.12 L 280.64 -17.74 L 280.69 -17.14 L 280.66 -16.9 L 280.64 -16.44 L 280.64 -16.04 L 280.72 -15.63 L 280.66 -15.2 L 280.66 -14.77 L 280.75 -14.36 L 280.66 -13.85 L 280.75 -13.53 L 280.69 -13.04 L 280.66 -12.72 L 280.66 -12.26 L 280.75 -11.91 L 280.64 -11.61 L 280.64 -11.18 L 280.69 -10.75 L 280.64 -10.21 L 280.69 -9.86 L 280.5 -9.75 L 280.39 -10.26 L 280.29 -10.56 L 280.1 -11.04 L 279.88 -11.23 L 279.77 -11.69 L 279.42 -12.45 L 279.37 -12.88 L 279.23 -13.1 L 279.02 -13.72 L 278.91 -14.09 L 278.77 -14.28 L 278.53 -14.74 L 278.42 -14.98 L 278.26 -15.58 L 278.05 -15.9 L 277.96 -16.23 L 277.8 -16.5 L 277.69 -16.96 L 277.48 -17.44 L 277.34 -17.87 L 277.18 -18.14 Z M 309.15 -19.01 L 308.5 -18.58 L 308.2 -18.25 L 307.96 -18.06 L 307.66 -17.68 L 307.29 -17.33 L 306.96 -17.14 L 306.72 -16.77 L 306.48 -16.61 L 306.15 -15.9 L 306.15 -15.39 L 306.07 -14.85 L 306.1 -14.55 L 306.18 -14.18 L 306.18 -13.69 L 306.15 -13.37 L 306.15 -13.01 L 306.07 -12.53 L 306.1 -12.1 L 306.07 -11.61 L 306.18 -11.18 L 306.13 -10.85 L 306.1 -10.53 L 306.07 -10.13 L 306.1 -9.67 L 306.1 -9.34 L 306.07 -8.88 L 306.13 -8.51 L 306.18 -8.05 L 306.18 -7.56 L 306.13 -7.21 L 306.18 -6.72 L 306.15 -6.26 L 306.15 -5.99 L 306.1 -5.56 L 306.07 -5.24 L 306.1 -4.83 L 306.13 -4.4 L 306.07 -3.92 L 306.18 -3.46 L 306.07 -3.05 L 306.42 -2.29 L 306.72 -2.08 L 306.99 -1.84 L 307.34 -1.59 L 307.58 -1.19 L 307.93 -0.81 L 308.2 -0.68 L 308.53 -0.35 L 309.26 0.08 L 309.61 -0.03 L 309.96 0.11 L 310.45 0.08 L 310.74 0.11 L 311.26 -0.05 L 311.63 0.14 L 311.93 -0.11 L 312.42 0.08 L 312.71 0.03 L 313.12 -0.08 L 313.63 0.11 L 313.9 -0.05 L 314.31 0 L 315.01 -0.38 L 315.41 -0.49 L 315.66 -1 L 315.98 -1.11 L 316.2 -1.48 L 316.55 -1.73 L 316.87 -2.13 L 317.2 -2.32 L 317.44 -2.97 L 317.49 -3.38 L 317.49 -3.97 L 317.44 -4.18 L 317.52 -4.48 L 317.44 -5.08 L 316.98 -5.35 L 316.66 -5.45 L 316.25 -5.48 L 315.74 -5.43 L 315.41 -5.51 L 314.98 -5.29 L 314.47 -5.48 L 314.14 -5.35 L 313.74 -4.94 L 313.71 -4.54 L 313.69 -4.08 L 313.31 -3.65 L 312.82 -3.7 L 312.39 -3.7 L 311.93 -3.75 L 311.63 -3.78 L 311.17 -3.78 L 310.74 -3.7 L 310.34 -3.73 L 309.93 -4.13 L 309.96 -4.7 L 309.96 -4.91 L 309.91 -5.26 L 309.85 -5.78 L 309.88 -6.21 L 309.91 -6.56 L 309.91 -6.91 L 309.93 -7.32 L 309.88 -7.72 L 309.93 -8.13 L 309.88 -8.61 L 309.93 -9.07 L 309.96 -9.37 L 309.93 -9.86 L 309.85 -10.58 L 309.93 -11.1 L 309.88 -11.53 L 309.96 -11.85 L 309.88 -12.29 L 309.96 -12.77 L 309.93 -13.18 L 309.85 -13.99 L 309.91 -14.31 L 309.88 -14.66 L 310.31 -15.23 L 310.72 -15.07 L 311.12 -15.01 L 311.53 -15.23 L 312.04 -14.98 L 312.47 -15.23 L 312.88 -14.98 L 313.25 -15.2 L 313.74 -14.8 L 313.71 -14.28 L 313.69 -13.85 L 314.09 -13.39 L 314.5 -13.47 L 315.31 -13.42 L 315.79 -13.47 L 316.17 -13.39 L 316.6 -13.42 L 317.03 -13.58 L 317.52 -13.8 L 317.41 -14.36 L 317.44 -14.77 L 317.49 -15.12 L 317.52 -15.36 L 317.52 -15.79 L 317.14 -16.58 L 316.84 -16.69 L 316.6 -17.12 L 316.28 -17.25 L 315.93 -17.58 L 315.71 -17.93 L 315.41 -18.31 L 315.09 -18.5 L 314.41 -18.93 L 313.93 -18.85 L 313.52 -18.82 L 312.79 -18.77 L 312.39 -18.9 L 311.93 -18.85 L 311.63 -18.87 L 311.17 -19.01 L 310.74 -18.82 L 310.34 -18.9 L 310.01 -18.98 L 309.55 -18.93 Z M 348.76 -18.5 L 348.3 -18.98 L 347.95 -18.98 L 347.44 -18.85 L 347.08 -18.79 L 346.71 -18.82 L 346.25 -18.93 L 345.9 -18.79 L 345.52 -18.95 L 345.11 -18.9 L 344.63 -18.98 L 344.2 -18.87 L 343.79 -19.01 L 343.39 -18.82 L 342.98 -18.93 L 342.63 -18.98 L 342.2 -18.93 L 341.85 -18.95 L 341.39 -18.98 L 341.01 -18.85 L 340.58 -18.95 L 340.2 -19.01 L 339.85 -18.79 L 339.36 -18.85 L 338.93 -18.95 L 338.66 -18.6 L 338.58 -18.2 L 338.63 -17.71 L 338.58 -17.14 L 338.66 -16.79 L 338.58 -16.44 L 338.58 -16.2 L 338.66 -15.79 L 338.58 -15.34 L 338.66 -14.98 L 338.58 -14.34 L 338.58 -13.93 L 338.61 -13.58 L 338.58 -13.2 L 338.58 -12.85 L 338.61 -12.53 L 338.63 -12.15 L 338.63 -11.69 L 338.61 -11.37 L 338.66 -10.88 L 338.55 -10.5 L 338.58 -9.99 L 338.61 -9.56 L 338.61 -9.26 L 338.66 -8.8 L 338.66 -8.37 L 338.58 -7.99 L 338.63 -7.72 L 338.61 -7.26 L 338.63 -6.78 L 338.55 -6.43 L 338.61 -6.02 L 338.58 -5.54 L 338.61 -5.24 L 338.55 -4.72 L 338.58 -4.37 L 338.55 -4 L 338.58 -3.67 L 338.58 -3.1 L 338.63 -2.86 L 338.58 -2.51 L 338.55 -1.92 L 338.66 -1.57 L 338.61 -1.13 L 338.66 -0.86 L 338.61 -0.32 L 338.93 0.14 L 339.39 0.05 L 339.82 0.11 L 340.23 0.05 L 340.66 0.11 L 341.04 0 L 341.36 -0.05 L 341.82 0.11 L 342.17 -0.05 L 342.66 -0.08 L 343.03 0.14 L 343.41 0.05 L 343.87 0 L 344.68 0 L 345.06 0.14 L 345.41 0.03 L 345.9 0.14 L 346.25 0.11 L 346.71 0.14 L 347.08 0.03 L 347.49 -0.05 L 347.92 0.14 L 348.25 0 L 348.76 -0.3 L 348.73 -0.86 L 348.68 -1.3 L 348.7 -1.65 L 348.7 -2.16 L 348.68 -2.56 L 348.76 -3.02 L 348.7 -3.46 L 348.25 -3.65 L 347.95 -3.73 L 347.49 -3.78 L 347.06 -3.73 L 346.68 -3.73 L 346.33 -3.81 L 345.87 -3.7 L 345.52 -3.75 L 345.14 -3.75 L 344.71 -3.78 L 343.95 -3.78 L 343.55 -3.73 L 343.22 -3.83 L 342.76 -3.67 L 342.41 -4.32 L 342.41 -4.48 L 342.39 -5.02 L 342.39 -5.51 L 342.44 -5.75 L 342.33 -6.24 L 342.36 -6.72 L 342.33 -7.18 L 342.76 -7.67 L 343.2 -7.56 L 343.52 -7.59 L 343.93 -7.61 L 344.36 -7.48 L 344.74 -7.56 L 345.17 -7.53 L 345.63 -7.48 L 346.03 -7.45 L 346.46 -7.56 L 346.81 -7.51 L 347.17 -7.59 L 347.57 -7.99 L 347.6 -8.34 L 347.65 -8.86 L 347.62 -9.23 L 347.65 -9.67 L 347.62 -10.07 L 347.62 -10.91 L 347.19 -11.31 L 346.84 -11.21 L 346.38 -11.23 L 346.06 -11.37 L 345.55 -11.42 L 345.25 -11.26 L 344.82 -11.45 L 344.36 -11.21 L 343.95 -11.26 L 343.6 -11.23 L 343.14 -11.34 L 342.79 -11.45 L 342.39 -11.64 L 342.44 -12.2 L 342.39 -12.69 L 342.44 -13.12 L 342.44 -13.9 L 342.33 -14.23 L 342.44 -14.69 L 342.79 -15.2 L 343.12 -15.2 L 343.6 -15.01 L 343.98 -15.12 L 344.3 -15.07 L 344.74 -15.15 L 345.09 -15.17 L 345.55 -15.04 L 345.95 -15.07 L 346.38 -14.98 L 346.73 -15.12 L 347.08 -15.2 L 347.52 -15.04 L 347.89 -15.09 L 348.25 -15.07 L 348.7 -15.42 L 348.68 -15.88 L 348.65 -16.31 L 348.65 -16.88 L 348.73 -17.09 L 348.73 -17.68 L 348.7 -18.01 Z" stroke-linecap="round" />
</g>
</g>
</g>
<g transform="matrix(1.9211538461538467 0 0 1.9211538461538467 260.7516538725857 524.3686747456875)" id="tagline-1aa710e7-9895-4be7-a91c-135423f31a22-logo"  >
<g style=""  paint-order="stroke"   >
		<g transform="matrix(1 0 0 1 0 0)" id="tagline-1aa710e7-9895-4be7-a91c-135423f31a22-logo-path-0"  >
<path style="stroke: none; stroke-width: 0; stroke-dasharray: none; stroke-linecap: butt; stroke-dashoffset: 0; stroke-linejoin: miter; stroke-miterlimit: 4; fill: rgb(255,255,255); fill-rule: nonzero; opacity: 1;"  paint-order="stroke"  transform=" translate(-37.309999999999995, 27.71)" d="M 37.4 0.91 C 41.04 0.91 44.59 0.55 47.87 -0.09 L 55.6 9.19 L 65.34 1 L 59.97 -5.46 C 66.61 -10.74 70.07 -19.66 70.07 -31.94 C 70.07 -53.78 59.88 -64.61 37.4 -64.61 C 15.47 -64.61 4.55 -54.42 4.55 -31.94 C 4.55 -10.01 14.83 0.91 37.4 0.91 Z M 20.02 -31.94 C 20.02 -45.32 25.48 -51.87 37.4 -51.87 C 48.78 -51.87 54.6 -45.5 54.6 -31.94 C 54.6 -25.12 53.23 -20.11 50.41 -16.84 L 42.41 -26.48 L 32.67 -18.29 L 38.04 -11.83 L 37.4 -11.83 C 25.75 -11.83 20.02 -18.11 20.02 -31.94 Z" stroke-linecap="round" />
</g>
</g>
</g>
</svg>